<svg width="1024" height="1024" viewBox="0 0 1024 1024" fill="none" xmlns="http://www.w3.org/2000/svg">
<path d="M266.158 347.998C272.332 336.103 280.666 325.462 290.734 316.617L348.035 266.278C370.059 246.929 399.003 237.366 428.22 239.783L734.146 265.096C777.395 268.675 814.302 297.792 827.846 339.021L876.231 486.307C881.981 503.811 883.158 522.495 879.649 540.582L853.704 674.318C843.747 725.645 798.452 762.469 746.173 761.739L278.64 755.21C228.019 754.503 184.683 718.728 174.4 669.158L160.801 603.605C155.755 579.281 159.249 553.961 170.694 531.912L266.158 347.998Z" fill="#1C274C"/>
<path d="M158.246 0.00216898C372.622 307.863 186.262 284.677 100.81 310.784C186.086 425.625 137.193 533.539 3 601.127C118.386 646.885 271.685 667.213 95.3682 908.655C270.267 810.946 391.431 802.708 374.778 1024C501.802 897.056 667.184 833.084 832.046 940.383C813.237 779.973 859.87 709.729 1022.99 778.923C848.09 620.478 920.364 526.395 1024 434.234C844.894 427.22 819.778 292.094 826.367 130.584C718.271 246.727 636.261 234.222 597.788 6.96625C523.488 173.759 423.423 280.213 158.244 0L158.246 0.00216898ZM435 288.5C470.385 289.273 457.023 263.765 477.026 290.849L346.246 514.52C301.362 518.827 268.641 504.587 254.405 462.169L400.836 262.786C405.078 262.079 415 282.5 397.368 237.297C419 284 433.862 288.474 435 288.5ZM552.568 261.593C587.953 262.356 608.76 288.069 628.762 315.144L481.71 573.461C436.823 577.769 404.104 563.509 389.873 521.102L536.93 262.786C541.172 262.076 545.22 261.686 549.099 261.593C550.271 261.564 551.425 261.564 552.565 261.588L552.568 261.593ZM681.589 331.147C716.978 331.921 737.781 357.618 757.788 384.691L612.852 639.788C567.966 644.085 535.247 629.849 521.02 587.437L665.945 332.334C670.187 331.628 674.237 331.244 678.121 331.153C679.29 331.125 680.451 331.125 681.593 331.149L681.589 331.147ZM783.441 451.012C820.305 451.224 842.224 477.004 863.341 504.148L741.236 712.978C697.222 715.792 664.628 701.33 649.397 660.622L771.509 451.799C775.656 451.246 779.625 450.992 783.439 451.014L783.441 451.012ZM236.878 533.255L469.474 636.381C476.101 683.452 463.36 720.558 421.214 742.524L188.609 639.391C178.701 592.477 206.792 562.383 236.873 533.255H236.878Z" fill="#1C274C"/>
<path d="M409.087 643.12C451.03 653.633 498.617 653.64 546.504 640.807C594.39 627.977 635.597 604.177 666.667 574.1" stroke="#E1E4E8" stroke-width="50" stroke-linecap="round"/>
<path d="M608.587 486.098C626.369 481.333 634.991 455.848 627.844 429.175C620.697 402.501 600.488 384.741 582.705 389.506C564.923 394.27 556.302 419.756 563.449 446.429C570.596 473.102 590.805 490.863 608.587 486.098Z" fill="#E1E4E8"/>
<path d="M415.409 537.89C433.191 533.125 441.812 507.639 434.665 480.966C427.518 454.293 407.309 436.532 389.527 441.297C371.744 446.062 363.123 471.547 370.27 498.221C377.417 524.894 397.626 542.654 415.409 537.89Z" fill="#E1E4E8"/>
</svg>
